<svg width="208" height="133" viewBox="0 0 208 133" fill="none" xmlns="http://www.w3.org/2000/svg">
<path d="M27.6429 85.4287V100.786C27.6429 102.415 28.2901 103.977 29.4421 105.129C30.5941 106.281 32.1565 106.929 33.7857 106.929H76.7857C78.4149 106.929 79.9774 106.281 81.1294 105.129C82.2814 103.977 82.9286 102.415 82.9286 100.786V33.2144C82.9286 31.5852 82.2814 30.0227 81.1294 28.8707C79.9774 27.7187 78.4149 27.0715 76.7857 27.0715H33.7857C32.1565 27.0715 30.5941 27.7187 29.4421 28.8707C28.2901 30.0227 27.6429 31.5852 27.6429 33.2144V48.5715" stroke="#000001" stroke-width="2" stroke-linecap="round" stroke-linejoin="round"/>
<path d="M9.21429 67.0001H58.3571" stroke="#000001" stroke-width="2" stroke-linecap="round" stroke-linejoin="round"/>
<path d="M46.0714 54.7144L58.3571 67.0001L46.0714 79.2858" stroke="#000001" stroke-width="2" stroke-linecap="round" stroke-linejoin="round"/>
<path d="M141.5 42.75C151.993 42.75 160.5 34.2434 160.5 23.75C160.5 13.2566 151.993 4.75 141.5 4.75C131.007 4.75 122.5 13.2566 122.5 23.75C122.5 34.2434 131.007 42.75 141.5 42.75Z" stroke="#000001" stroke-width="2" stroke-linecap="round" stroke-linejoin="round"/>
<path d="M174.75 76C174.75 67.1816 171.247 58.7243 165.011 52.4887C158.776 46.2531 150.318 42.75 141.5 42.75C132.682 42.75 124.224 46.2531 117.989 52.4887C111.753 58.7243 108.25 67.1816 108.25 76V90.25H122.5L127.25 128.25H155.75L160.5 90.25H174.75V76Z" stroke="#000001" stroke-width="2" stroke-linecap="round" stroke-linejoin="round"/>
</svg>
