<svg width="144" height="123" viewBox="0 0 144 123" fill="none" xmlns="http://www.w3.org/2000/svg">
<path d="M39.8228 55.8901C25.0697 55.8901 13.11 43.9303 13.11 29.1772C13.11 14.4241 25.0697 2.46436 39.8228 2.46436C54.576 2.46436 66.5357 14.4241 66.5357 29.1772C66.5357 43.9303 54.576 55.8901 39.8228 55.8901Z" stroke="#000001" stroke-width="2" stroke-linecap="round" stroke-linejoin="round"/>
<path d="M2.46427 66.5359L20.9464 48.0537" stroke="#000001" stroke-width="2" stroke-linecap="round" stroke-linejoin="round"/>
<path d="M117 120V105H129C130.591 105 132.117 104.368 133.243 103.243C134.368 102.117 135 100.591 135 99V75C134.999 69.1351 133.435 63.3766 130.469 58.317C127.503 53.2575 123.242 49.0798 118.125 46.214C113.008 43.3482 107.22 41.8979 101.356 42.0124C95.4923 42.1268 89.765 43.8019 84.7637 46.8652C79.7624 49.9285 75.6679 54.2693 72.9016 59.4407C70.1353 64.6121 68.7971 70.4274 69.0249 76.2878C69.2527 82.1482 71.0382 87.842 74.1976 92.7832C77.3569 97.7243 81.7761 101.734 87 104.4V120" stroke="#000001" stroke-width="2" stroke-linecap="round" stroke-linejoin="round"/>
</svg>
