<svg width="96" height="98" viewBox="0 0 96 98" fill="none" xmlns="http://www.w3.org/2000/svg">
<path d="M3.42856 59.5H17.1428C21.6894 59.5 26.0498 61.3437 29.2647 64.6256C32.4796 67.9075 34.2857 72.3587 34.2857 77" stroke="#000001" stroke-width="2" stroke-linecap="round" stroke-linejoin="round"/>
<path d="M13.7143 77H48C51.6372 77 55.1255 78.475 57.6974 81.1005C60.2694 83.726 61.7143 87.287 61.7143 91C61.7143 91.9283 61.3531 92.8185 60.7101 93.4749C60.0671 94.1313 59.195 94.5 58.2857 94.5H3.42856" stroke="#000001" stroke-width="2" stroke-linecap="round" stroke-linejoin="round"/>
<path d="M60 59.5L32.5714 33.6C17.6228 18.27 39.4286 -11.41 60 12.6C80.5714 -11.34 102.583 18.34 87.4286 33.6L60 59.5Z" stroke="#000001" stroke-width="2" stroke-linecap="round" stroke-linejoin="round"/>
</svg>
